<svg xmlns="http://www.w3.org/2000/svg" width="54" height="54" fill="none"><path fill="#EBEAED" d="M19.857 23.143a3.56 3.56 0 0 0-3.571-3.571 3.56 3.56 0 0 0-3.572 3.571 3.56 3.56 0 0 0 3.572 3.572 3.56 3.56 0 0 0 3.571-3.572Zm10.714 0A3.56 3.56 0 0 0 27 19.572a3.56 3.56 0 0 0-3.571 3.571A3.56 3.56 0 0 0 27 26.715a3.56 3.56 0 0 0 3.571-3.572Zm10.715 0a3.56 3.56 0 0 0-3.572-3.571 3.56 3.56 0 0 0-3.571 3.571 3.56 3.56 0 0 0 3.571 3.572 3.56 3.56 0 0 0 3.572-3.572ZM27 8.857c11.607 0 21.429 6.53 21.429 14.286 0 7.757-9.822 14.286-21.429 14.286-1.2 0-2.427-.084-3.627-.224l-1.59-.167-1.2 1.06a27.654 27.654 0 0 1-7.673 4.772 20.109 20.109 0 0 0 1.953-4.8l.753-2.678-2.427-1.395C8.362 31.262 5.57 27.3 5.57 23.143c0-7.757 9.822-14.286 21.429-14.286Zm25 14.286c0-9.85-11.189-17.857-25-17.857S2 13.294 2 23.143c0 5.664 3.683 10.714 9.43 13.979-1.31 4.66-3.32 6.334-5.077 8.315-.419.502-.893.92-.754 1.618v.028c.14.614.642 1.06 1.2 1.06h.14c1.088-.14 2.176-.335 3.18-.614 4.827-1.228 9.18-3.515 12.835-6.752 1.312.14 2.679.223 4.046.223 13.811 0 25-7.98 25-17.857Z"/></svg>